<?xml version="1.0" ?><svg data-name="Layer 3" id="Layer_3" viewBox="0 0 48 48" xmlns="http://www.w3.org/2000/svg"><defs><style>.cls-1{fill:#ffa866;}.cls-2{fill:#ffd787;}.cls-3{fill:#ff8163;}.cls-4{fill:#686886;opacity:0.5;}.cls-5{fill:#ffeae5;opacity:0.24;}</style></defs><path class="cls-1" d="M45.959,22.76807a21.74207,21.74207,0,0,0-2.14941-8.35694A22.16286,22.16286,0,0,0,24,2,22.00553,22.00553,0,0,0,3.64844,15.647,20.31236,20.31236,0,0,0,2.63525,18.769,21.57358,21.57358,0,0,0,2,24c0,.4126.01025.81494.04053,1.21582A21.96536,21.96536,0,0,0,24,46,22.0141,22.0141,0,0,0,45.20166,29.876a21.14657,21.14657,0,0,0,.59326-2.89795A21.93948,21.93948,0,0,0,46,24C46,23.58936,45.98975,23.1792,45.959,22.76807Z"/><path class="cls-2" d="M42.73193,22.53564a.49871.49871,0,0,1-.36523-.15869,5.89013,5.89013,0,0,0-.69727-.63281.49986.49986,0,1,1,.61133-.791,6.8512,6.8512,0,0,1,.81641.74121.5.5,0,0,1-.36524.8413Z"/><path class="cls-2" d="M40.14746,20.82178a.50056.50056,0,0,1-.18652-.03614,13.25535,13.25535,0,0,0-3.9419-.82275.49948.49948,0,0,1-.46191-.53516.492.492,0,0,1,.53516-.46191,14.01831,14.01831,0,0,1,4.24169.89209.5.5,0,0,1-.18652.96387Z"/><path class="cls-3" d="M20.63672,14.92285a16.71,16.71,0,0,1-7.31836-1.54394.49989.49989,0,0,1,.43457-.90039A15.91744,15.91744,0,0,0,21.02539,13.919a.49483.49483,0,0,1,.50928.49072.50075.50075,0,0,1-.49072.50928C20.90771,14.92139,20.77148,14.92285,20.63672,14.92285Z"/><path class="cls-3" d="M41.5542,34.16992a.50378.50378,0,0,1-.1333-.01806,11.24369,11.24369,0,0,0-2.67774-.24024h-.00244a.5.5,0,0,1-.00244-1,11.96393,11.96393,0,0,1,2.94824.27637.5.5,0,0,1-.13232.98193Z"/><path class="cls-3" d="M28.3916,35.67175c-.09082,0-.17529-.00146-.25293-.00488A10.1582,10.1582,0,0,1,21.46338,32.497a.50013.50013,0,0,1,.75146-.66016,9.30065,9.30065,0,0,0,5.96778,2.83106,37.72577,37.72577,0,0,0,3.93066-.29883c1.19238-.12354,2.50293-.25928,3.78272-.356a.5.5,0,0,1,.07519.99707c-1.27051.0957-2.57129.231-3.75488.35352C30.63086,35.52771,29.24072,35.67175,28.3916,35.67175Z"/><path class="cls-3" d="M17.34823,37.65872c.0614-.40931.90049-.6549,1.39166-.79816a3.78135,3.78135,0,0,1,1.32-.174c1.41212.10233,2.88564,1.3098,2.71168,1.9647-.18419.67536-2.21028.86978-3.735.33768C18.31011,38.73316,17.2766,38.16012,17.34823,37.65872Z"/><path class="cls-3" d="M16.35565,32.90048c.10233.15349.96188,1.42235.53211,2.067-.26606.40931-.92095.33768-3.62241-.01024-4.06241-.52187-4.68661-.88-5.12662-1.20746a4.34971,4.34971,0,0,1-1.97492-2.507,2.43469,2.43469,0,0,1,.19442-1.8726c.88-1.3098,3.40751-.81862,3.57124-.77769,1.46329.29675,1.23817.91072,4.23637,2.61959A5.65559,5.65559,0,0,1,16.35565,32.90048Z"/><path class="cls-2" d="M13.26535,34.95726c2.70146.34792,3.35635.41955,3.62241.01024.42977-.64467-.42978-1.91353-.53211-2.067a5.65559,5.65559,0,0,0-2.18981-1.68841c-2.9982-1.70887-2.77308-2.32284-4.23637-2.61959-.16373-.04093-2.69122-.53211-3.57124.77769a2.43469,2.43469,0,0,0-.19442,1.8726,4.34971,4.34971,0,0,0,1.97492,2.507C8.57874,34.07725,9.20294,34.43539,13.26535,34.95726Zm6.79457,1.72934a3.78135,3.78135,0,0,0-1.32.174c-.49117.14326-1.33026.38885-1.39166.79816-.07163.5014.96188,1.07444,1.68841,1.33026,1.52468.5321,3.55077.33768,3.735-.33768C22.94556,37.9964,21.472,36.78893,20.05992,36.6866Zm-15.8608-3.121A21.78037,21.78037,0,0,1,2.04,25.185,22.78616,22.78616,0,0,1,9.83737,26.3515a25.01542,25.01542,0,0,1,7.02992,3.868c3.11076,2.42517,2.62982,3.20286,5.16755,4.82987a14.1625,14.1625,0,0,0,8.24762,2.42517c2.30237-.133,2.70145-.747,5.78152-1.361a18.11109,18.11109,0,0,1,6.34432-.10233,22.1428,22.1428,0,0,1-6.03734,6.1499l-.01023-.01023c-.39908,0-.80839,0-1.2177-.02047-.6242-.01023-1.17677-.04093-1.23817-.04093-2.84471-.14326-6.17036-.133-6.17036-.133a33.84113,33.84113,0,0,1-7.83831-.82885c-2.2-.52187-4.16474-1.494-8.002-3.41775-1.94423-.97211-4.58428-2.35354-7.68481-4.14427Z"/><path class="cls-3" d="M45.79534,26.945a21.04931,21.04931,0,0,1-.5935,2.89588,16.28521,16.28521,0,0,0-2.83448-.95165c-4.35916-1.06421-6.682.16372-10.9286-.19442C29.075,28.50038,27.41728,27.866,24.0814,26.638c-6.02711-2.25121-5.935-3.61217-10.84674-4.9936-2.51727-.71629-3.53031-.62419-7.26527-1.7805-1.2791-.38884-2.40471-.77769-3.33589-1.1256a20.21322,20.21322,0,0,1,1.013-3.121A31.16146,31.16146,0,0,1,15.977,18.24714c2.65029,1.19724,4.29776,2.44564,8.07366,3.44845,2.12842.55257,2.39447.36838,6.682,1.22793,1.28933.25582,4.06241.82886,7.53132,1.74981C40.32081,25.2259,42.879,25.96266,45.79534,26.945Z"/><path class="cls-2" d="M43.81019,14.37915a21.85392,21.85392,0,0,1,2.14888,8.36018c-.19442-.09209-1.76-1.7498-2.66052-2.66052C41.078,17.81737,38.6324,18.4211,34.9793,17.22387c-4.49219-1.47352-3.87822-3.38705-7.9918-4.41033-2.947-.73676-2.92657.33768-7.50062-.25582-3.93962-.5014-4.95266-1.42235-8.22715-1.46329a18.57789,18.57789,0,0,0-5.669.82886,22.21636,22.21636,0,0,1,6.04757-6.16013l.01024.01023a28.3653,28.3653,0,0,1,10.47836-.73676,30.33163,30.33163,0,0,1,8.24761,2.27168,63.59844,63.59844,0,0,1,6.38525,3.295c3.04937,1.66794,5.51547,2.97774,7.02992,3.78613Z"/><path class="cls-3" d="M37.96484,16.80371c-.01464,0-.0288-.00049-.04394-.00195A9.48492,9.48492,0,0,1,33.89209,15.478a.5.5,0,1,1,.50977-.86035,8.48773,8.48773,0,0,0,3.606,1.188.5.5,0,0,1-.043.998Z"/><path class="cls-4" d="M36.4801,5.85868A21.99025,21.99025,0,0,1,5.89082,36.44776,21.99443,21.99443,0,1,0,36.4801,5.85868Z"/><circle class="cls-5" cx="12.23184" cy="14.24613" r="6.6513"/></svg>